<?xml version="1.0" encoding="UTF-8" standalone="no"?>
<svg
   xmlns:dc="http://purl.org/dc/elements/1.1/"
   xmlns:cc="http://creativecommons.org/ns#"
   xmlns:rdf="http://www.w3.org/1999/02/22-rdf-syntax-ns#"
   xmlns:svg="http://www.w3.org/2000/svg"
   xmlns="http://www.w3.org/2000/svg"
   xmlns:sodipodi="http://sodipodi.sourceforge.net/DTD/sodipodi-0.dtd"
   xmlns:inkscape="http://www.inkscape.org/namespaces/inkscape"
   width="793.700787402"
   height="1122.51968504"
   version="1.1"
   id="svg221"
   sodipodi:docname="Z Gantry plate 400x252.svg"
   inkscape:version="0.92.1 r15371">
  <metadata
     id="metadata225">
    <rdf:RDF>
      <cc:Work
         rdf:about="">
        <dc:format>image/svg+xml</dc:format>
        <dc:type
           rdf:resource="http://purl.org/dc/dcmitype/StillImage" />
        <dc:title></dc:title>
      </cc:Work>
    </rdf:RDF>
  </metadata>
  <sodipodi:namedview
     pagecolor="#ffffff"
     bordercolor="#666666"
     borderopacity="1"
     objecttolerance="10"
     gridtolerance="10"
     guidetolerance="10"
     inkscape:pageopacity="0"
     inkscape:pageshadow="2"
     inkscape:window-width="2880"
     inkscape:window-height="1766"
     id="namedview223"
     showgrid="false"
     inkscape:zoom="5.4875752"
     inkscape:cx="32.284432"
     inkscape:cy="375.89828"
     inkscape:window-x="-11"
     inkscape:window-y="-11"
     inkscape:window-maximized="1"
     inkscape:current-layer="g219" />
  <desc
     id="desc10">C:\Users\lpgn\OneDrive\gits_go_here\FAB-2.0-Large-CNC\2D\Z Gantry plate 400x252.DXF - scale = 1.000000, origin = (0.000000, 0.000000), method = manual</desc>
  <defs
     id="defs25">
    <marker
       id="DistanceX"
       orient="auto"
       refX="0.0"
       refY="0.0"
       style="overflow:visible">
      <path
         d="M 3,-3 L -3,3 M 0,-5 L  0,5"
         style="stroke:#000000; stroke-width:0.5"
         id="path12" />
    </marker>
    <pattern
       height="8"
       id="Hatch"
       patternUnits="userSpaceOnUse"
       width="8"
       x="0"
       y="0">
      <path
         d="M8 4 l-4,4"
         linecap="square"
         stroke="#000000"
         stroke-width="0.25"
         id="path15" />
      <path
         d="M6 2 l-4,4"
         linecap="square"
         stroke="#000000"
         stroke-width="0.25"
         id="path17" />
      <path
         d="M4 0 l-4,4"
         linecap="square"
         stroke="#000000"
         stroke-width="0.25"
         id="path19" />
    </pattern>
    <symbol
       id="*Model_Space" />
    <symbol
       id="*Paper_Space" />
    <symbol
       id="*Paper_Space0" />
  </defs>
  <g
     inkscape:groupmode="layer"
     inkscape:label="0"
     id="g219">
    <path
       d="M 55.181102,796.315088 A 9.826772,9.826772 -0.000000 1 0 35.527559,796.315088 9.826772,9.826772 -0.000000 1 0 55.181102,796.315088 z"
       style="stroke:#000000;fill:none;stroke-linecap: round"
       id="path27" />
    <path
       d="M -35.527559,796.315088 A 9.826772,9.826772 -0.000000 1 0 -55.181102,796.315088 9.826772,9.826772 -0.000000 1 0 -35.527559,796.315088 z"
       style="stroke:#000000;fill:none;stroke-linecap: round"
       id="path29" />
    <path
       d="M 55.181102,645.133986 A 9.826772,9.826772 -0.000000 1 0 35.527559,645.133986 9.826772,9.826772 -0.000000 1 0 55.181102,645.133986 z"
       style="stroke:#000000;fill:none;stroke-linecap: round"
       id="path31" />
    <path
       d="M -35.527559,645.133986 A 9.826772,9.826772 -0.000000 1 0 -55.181102,645.133986 9.826772,9.826772 -0.000000 1 0 -35.527559,645.133986 z"
       style="stroke:#000000;fill:none;stroke-linecap: round"
       id="path33" />
    <path
       d="M 55.181102,822.771781 A 9.826772,9.826772 -0.000000 1 0 35.527559,822.771781 9.826772,9.826772 -0.000000 1 0 55.181102,822.771781 z"
       style="stroke:#000000;fill:none;stroke-linecap: round"
       id="path35" />
    <path
       d="M -35.527559,822.771781 A 9.826772,9.826772 -0.000000 1 0 -55.181102,822.771781 9.826772,9.826772 -0.000000 1 0 -35.527559,822.771781 z"
       style="stroke:#000000;fill:none;stroke-linecap: round"
       id="path37" />
    <path
       d="M 55.181102,671.590678 A 9.826772,9.826772 -0.000000 1 0 35.527559,671.590678 9.826772,9.826772 -0.000000 1 0 55.181102,671.590678 z"
       style="stroke:#000000;fill:none;stroke-linecap: round"
       id="path39" />
    <path
       d="M -35.527559,671.590678 A 9.826772,9.826772 -0.000000 1 0 -55.181102,671.590678 9.826772,9.826772 -0.000000 1 0 -35.527559,671.590678 z"
       style="stroke:#000000;fill:none;stroke-linecap: round"
       id="path41" />
    <path
       d="M -66.078644,859.66102 H 66.078644"
       style="fill:none;stroke:#000000;stroke-width:1.12440395;stroke-linecap:round"
       id="path45"
       inkscape:connector-curvature="0" />
    <path
       d="M -66.078644,859.66102 V 630.07896"
       style="fill:none;stroke:#000000;stroke-width:1.12440395;stroke-linecap:round"
       id="path47"
       inkscape:connector-curvature="0" />
    <path
       d="M -66.141732,630.015875 66.141732,630.015875"
       style="stroke:#000000;fill:none;stroke-linecap: round"
       id="path49" />
    <path
       d="M 66.078644,859.66102 V 630.07896"
       style="fill:none;stroke:#000000;stroke-width:1.12440395;stroke-linecap:round"
       id="path51"
       inkscape:connector-curvature="0" />
  </g>
</svg>
